<svg xmlns="http://www.w3.org/2000/svg" xmlns:xlink="http://www.w3.org/1999/xlink" viewBox="0 0 1280 570"><defs><linearGradient id="未命名漸層_18" x1="640" y1="495" x2="640" y2="395" gradientUnits="userSpaceOnUse"><stop offset="0" stop-color="#e6e6e6"/><stop offset="1" stop-color="#b3b3b3"/></linearGradient><linearGradient id="未命名漸層_18-2" y1="339" y2="379" xlink:href="#未命名漸層_18"/><clipPath id="clip-path"><rect x="743.48" y="121.01" width="286.52" height="247.64" style="fill:none"/></clipPath><clipPath id="clip-path-2"><rect x="270.2" y="140" width="211.97" height="228.05" style="fill:none"/></clipPath><clipPath id="clip-path-3"><path d="M426.81,244.56c-4.73-4.25-30.28-7.57-34.07-7.09-5.68,30.28-21.29,101.25-21.29,117.81s1.42,80,30.28,78.07,40.69-4.26,43.06-8.52c1.89-4.73-20.35-75.7-19.87-83.27S438.64,256.39,426.81,244.56Z" style="fill:none"/></clipPath><clipPath id="clip-path-4"><path d="M325.56,244.56c4.73-4.25,29.8-7.57,34.06-7.09,5.21,30.28,21.29,101.25,21.29,117.81s-1.89,80-30.28,78.07-40.69-4.26-43.05-8.52,20.34-75.7,19.87-83.27S313.73,256.39,325.56,244.56Z" style="fill:none"/></clipPath></defs><g id="adminCenter"><rect id="officeWall" width="1280" height="570" style="fill:#c7b299"/><g id="officeDesk03"><rect y="395" width="1280" height="100" style="fill:url(#未命名漸層_18)"/></g><rect id="officeDesk02" y="379" width="1280" height="2" style="fill:#999"/><g id="officeDesk01"><rect y="339" width="1280" height="40" style="fill:url(#未命名漸層_18-2)"/></g><rect id="officeFloor" y="495" width="1280" height="75" style="fill:#386b57"/><g id="tree"><path d="M641.41,337.93l0-.18h-.05C641.4,337.81,641.41,337.87,641.41,337.93Z" style="fill:none"/><path d="M647.13,338.25a36.37,36.37,0,0,1,9.38-9.92,18.91,18.91,0,0,0-9.38,4.89A37.17,37.17,0,0,1,658,314.94c-6.73,2-10.93,7.58-13.57,13.62,2-14.6,6.67-22.17,12.08-28-5.38,1.57-9.54,6.09-12.53,12a40.22,40.22,0,0,1,7.08-20.45c-3.36,1.26-9.19,7.52-11.51,19-2.23-7.17-5.66-12.75-10.31-14.55,3.19,5,6.13,11.2,7.55,22-3-6.94-7.52-12.32-13.5-14.06,5.41,5.82,10.11,13.39,12.08,28-3-4.61-7.21-8.44-13.07-9.61a32.47,32.47,0,0,1,11.77,15.37Zm-5.72-.32c0-.06,0-.12,0-.18h.05Z" style="fill:#277e7f"/><polygon points="626.38 343.7 628.25 367.01 653.04 367.01 654.91 343.7 626.38 343.7" style="fill:#ebd8c9"/><polygon points="634.07 338.25 623.29 338.25 623.29 343.7 626.38 343.7 654.91 343.7 658 343.7 658 338.25 647.13 338.25 634.07 338.25" style="fill:#cca485"/></g><rect id="officeDesk02-2" data-name="officeDesk02" y="393" width="1280" height="2" style="fill:#999"/><rect id="officeDesk02-3" data-name="officeDesk02" y="380" width="1280" height="14" style="fill:#ccc"/></g><g id="people02"><g id="brandInfo"><rect x="733.5" y="46.5" width="310" height="84" rx="28.5" style="fill:#386b57;stroke:#006837;stroke-miterlimit:10;stroke-width:5px"/><text transform="translate(748.8 106.44)" style="font-size:48px;fill:#fff;font-family:NotoSansTC-Bold-90ms-RKSJ-H, Noto Sans TC;letter-spacing:0.20000203450520834em">市民資料科</text></g><g id="men"><g style="clip-path:url(#clip-path)"><path d="M878.72,241l-.17-.81c-1.29,1.47-2,1.28-2.87.39-1.69-1.19-5.57-5.46-8.42-9.5.28,19.63-.71,65.1-1.1,97.37,4.08.41,8,.83,11.78,1.25l2-88.7Z" style="fill:#d3dcdc"/><path d="M877,407.37h15.17v.43h10.19c-.05-15.58.17-35.23.64-47.66,0-1.26.09-2.82.11-4.63v-.09c-3.87-.09-7.67-.19-11.32-.31l.38,16.52-7.81,8.51L877,371.63l.37-16.53c-3.65.12-7.45.23-11.32.31v.1c0,1.81.06,3.37.11,4.63.48,12.43.69,32.08.64,47.66H877Z" style="fill:#d3dcdc"/><path d="M901.9,230.38a65,65,0,0,1-9.74,10.2c-.84.66-1.23.93-1.74.42h-1.23l2,88.65c3.74-.41,7.7-.84,11.78-1.25C902.58,295.76,901.58,249.61,901.9,230.38Z" style="fill:#d3dcdc"/><rect x="878.72" y="409.07" width="11.7" height="8.08" style="fill:#3e3a39"/><path d="M902.35,407.8H892.16v10.64H877V407.8h-10.2c0,3.85,0,7.45-.08,10.64h35.72C902.39,415.25,902.36,411.65,902.35,407.8Z" style="fill:#3e3a39"/><path d="M877,407.37v11.07h15.17V407.37Zm13.43,9.79h-11.7v-8.09h11.7Z" style="fill:#9fa0a0"/><path d="M861.16,175.14c0,.15,0,.29.05.43,0,.4.1.79.17,1.18h.87s3.9-12.34,6.93-14a109.69,109.69,0,0,0,10,9.79c1.3.42,2.17-6.81,2.17-6.81a80.11,80.11,0,0,0,12.14,8.94c1.73.42,2.16-8.51,2.6-9.36s11.27,11.06,12.14,11.48c.59.3,1.19.79,1.5,0a6.44,6.44,0,0,0,.23-2.08c0-.34,0-.92-.11-1.7.19-.54.37-.86.54-.86,1.3,0,12.14-3,11.71-4.25s-6.51-5.11-6.94-6,6.07.85,6.07-1.27-3.9-3.83-10.4-7.66c10.4-2.13,9.53-2.56,3-5.53s-18.64-7.24-23.41-9.37a17.5,17.5,0,0,0-18.2,6.81c-2.17-.85-14.74,9.79-15.61,14.89-.7,4.13,2.28,10.21,3.68,17.1a6,6,0,0,1,.74-.1C861.07,176.19,861.11,175.67,861.16,175.14Z" style="fill:#123955"/><path d="M884.35,231.22l-.76,1.27h1.95l-.75-1.27a77.59,77.59,0,0,0,9.1-10.08V209.26c7-2.65,11.14-8.57,13.16-16.24,5.85-3.38,9.19-7.62,8.08-11.16-.94-3-2.63-5.1-5.43-5.15-.31.83-.91.34-1.5,0-.87-.42-11.71-12.34-12.14-11.48s-.87,9.78-2.6,9.36a80.11,80.11,0,0,1-12.14-8.94s-.87,7.23-2.17,6.81a109.69,109.69,0,0,1-10-9.79c-3,1.7-6.93,14-6.93,14h-.87c-.07-.39-.12-.78-.17-1.18,0-.14,0-.28-.05-.43,0,.53-.09,1.05-.13,1.59a6,6,0,0,0-.74.1c-2.13.5-3.53,2.44-4.54,5-1.29,3.29,1.41,7.19,6.46,10.43,1.76,7.83,5.56,13.93,12.61,16.76v11.53A76.92,76.92,0,0,0,884.35,231.22Zm10.84-49.36a2.41,2.41,0,0,1,2.6,2.13,2.35,2.35,0,0,1-2.17,2.53,2.34,2.34,0,1,1-.43-4.66Zm-20.37,4.66a2.34,2.34,0,1,1-.44-4.66c1.74,0,2.61.85,2.61,2.13A2.35,2.35,0,0,1,874.82,186.52Z" style="fill:#f5af7e"/><path d="M874.38,181.86A2.34,2.34,0,1,0,877,184C877,182.71,876.12,181.86,874.38,181.86Z" style="fill:#123955"/><path d="M895.62,186.52a2.35,2.35,0,0,0,2.17-2.53,2.41,2.41,0,0,0-2.6-2.13,2.34,2.34,0,1,0,.43,4.66Z" style="fill:#123955"/><path d="M884.35,380.14l7.81-8.51-.38-16.52-7.26-.25c-2.29.08-4.69.17-7.16.24L877,371.63Z" style="fill:#f6ab00"/><path d="M889.19,241h1.23c-.75-.74-1.77-3.16-4.88-8.51h-1.95a60.88,60.88,0,0,1-5,7.7l.17.81H880l-2,88.7c2.23.24,4.37.49,6.41.72l6.85-.77Z" style="fill:#f6ab00"/><path d="M875.68,240.58c.91.89,1.58,1.08,2.87-.39a60.88,60.88,0,0,0,5-7.7l.76-1.27a76.92,76.92,0,0,1-9.53-10.64,31.5,31.5,0,0,0-8.09,1.08c.29.84.45,4.22.53,9.42C870.11,235.12,874,239.39,875.68,240.58Z" style="fill:#e6eaeb"/><path d="M884.79,231.22l.75,1.27c3.11,5.35,4.13,7.77,4.88,8.51.51.51.9.24,1.74-.42a65,65,0,0,0,9.74-10.2c.08-4.81.24-7.92.51-8.72a31.5,31.5,0,0,0-8.09-1.08l-.43.56A77.59,77.59,0,0,1,884.79,231.22Z" style="fill:#e6eaeb"/><path d="M861.38,253.34l-10,13.62s5.5,34,10,61l4.77.48c.39-32.27,1.38-77.74,1.1-97.37-.08-5.2-.24-8.58-.53-9.42-.05-.14-.09-.23-.15-.23-2.37.67-4.74,1.38-7.1,2.1l-8.07,9.82Z" style="fill:#231815"/><path d="M866,355.42v0Z" style="fill:#231815"/><path d="M903.12,355.42h0v.09Z" style="fill:#231815"/><path d="M903,328.4l4.78-.47c4.48-27,10-61,10-61l-10-13.62,10-20-8.07-9.82c-2.36-.72-4.72-1.43-7.1-2.1,0,0-.1.09-.15.23-.27.8-.43,3.91-.51,8.72C901.58,249.61,902.58,295.76,903,328.4Z" style="fill:#231815"/><polygon points="859.65 352.91 862.3 353.11 863.68 336.49 861.38 336.31 859.65 352.91" style="fill:#e6eaeb"/><path d="M967.17,329.28c0-.54,0-.91,0-1a1.06,1.06,0,0,0-.09-.35c-2-22-20.8-92.25-30.26-95a1.86,1.86,0,0,0-.84-.08q-12.94-5.21-26.3-9.31l8.07,9.82-10,20,10,13.62s-5.49,34-10,61l-4.78.47c-4.08.41-8,.84-11.78,1.25l-6.85.77c-2-.23-4.18-.48-6.41-.72-3.74-.42-7.7-.84-11.78-1.25l-4.77-.48c-4.48-27-10-61-10-61l10-13.62-10-20,8.07-9.82q-13.41,4.13-26.44,9.36a2.11,2.11,0,0,0-1.14,0c-9.44,2.7-27.82,72.39-30.15,94.76a1.29,1.29,0,0,0-.19.55c0,.25,0,1.26,0,2.75,0,.62,0,1.17,0,1.63.19,6.81,1.62,19.25,10,21.15a99.52,99.52,0,0,0,16.16,1.59c-3,36.93-6.62,80.11-6.62,80.11,3.63.48,7.19.89,10.74,1.25,5.78.59,11.53,1,17.43,1.3,14.31.42,16-3.83,16.91-6.38.27-.8.46-5.89.56-13.19,0-3.19.07-6.79.08-10.64.05-15.58-.16-35.23-.64-47.66,0-1.26-.08-2.82-.11-4.63v-.09h0c3.87-.08,7.67-.19,11.32-.31,2.47-.07,4.87-.16,7.16-.24l7.26.25c3.65.12,7.45.22,11.32.31h0l0,.09c0,1.81-.06,3.37-.11,4.63-.47,12.43-.69,32.08-.64,47.66,0,3.85,0,7.45.08,10.64.11,7.3.29,12.39.56,13.19.87,2.55,2.6,6.8,16.48,6.38,5.92-.27,11.69-.72,17.49-1.31,3.53-.36,7.07-.76,10.68-1.24,0,0-3.47-43.18-6.43-80.11a98.86,98.86,0,0,0,16-1.59c8.31-1.88,9.78-14.17,10-21A18.69,18.69,0,0,0,967.17,329.28ZM862.3,353.11l-2.65-.2,1.73-16.6,2.3.18Z" style="fill:#126173"/></g></g><path id="computer" d="M948.86,361.41H946.3l3.63-56.82v-.73c-.09-3.47-3.44-6.22-7.49-6.14H828.56c-4.1.32-7.17,3.35-7,6.87l3.6,56.82h-3.06a2.14,2.14,0,0,0-2.14,1.83v4.58a2.15,2.15,0,0,0,2.14,1.83H948.86a2.15,2.15,0,0,0,2.14-1.83v-4.58A2.14,2.14,0,0,0,948.86,361.41Z" style="fill:#123955"/></g><g id="people01"><g id="brond"><g id="brandReg"><rect x="216" y="46" width="310" height="84" rx="28.5" style="fill:#386b57;stroke:#006837;stroke-miterlimit:10;stroke-width:5px"/><text transform="translate(294.3 106.94)" style="font-size:48px;fill:#fff;font-family:NotoSansTC-Bold-90ms-RKSJ-H, Noto Sans TC;letter-spacing:0.20000203450520834em">註冊科</text></g></g><g id="women"><g style="clip-path:url(#clip-path-2)"><rect x="346.85" y="241.73" width="58.67" height="196.35" style="fill:#edeff6"/><path d="M416.4,200.56c-5.68-29.81-13.25-54.41-39.75-53.94h-.94c-26.5-.47-34.07,23.66-39.75,53.94s25.55,25.08,40.22,25.08S421.6,230.37,416.4,200.56Z" style="fill:#0f3284"/><path d="M402.68,191.57c0,16.09-11.83,29.34-26,29.34s-26-13.25-26-29.34,11.83-29.33,26-29.33S402.68,175.49,402.68,191.57Z" style="fill:#f5af7e"/><path d="M384.23,207.66c-1.9,6.15-4.74,2.36-18.46-.95s-23.18-11.35-21.76-17.5c1.89-6.15,6.62-9,16.56,0C374.76,202,386.12,201.51,384.23,207.66Z" style="fill:#f5af7e"/><path d="M369.56,207.66c1.89,6.15,4.73,2.36,18.45-.95s23.18-11.35,21.76-17.5-6.62-9-16.56,0C379,202,367.67,201.51,369.56,207.66Z" style="fill:#f5af7e"/><rect x="365.77" y="206.71" width="20.82" height="37.38" style="fill:#f5af7e"/><path d="M356.78,237.94c0,9.46,9,14.67,19.4,14.67s19.4-5.21,19.4-14.67l-19.4-1.42Z" style="fill:#f5af7e"/><path d="M368.14,191.57a2.65,2.65,0,0,1-2.37,2.84,2.73,2.73,0,0,1-2.84-2.84c0-1.89,1.42-2.36,2.84-2.36a2.23,2.23,0,0,1,2.37,2.36Z" style="fill:#0f3284"/><path d="M390.85,191.57a2.65,2.65,0,0,1-2.84,2.37c-.95,0-1.89-.95-2.37-2.37a2.65,2.65,0,0,1,2.84-2.36A5.68,5.68,0,0,1,390.85,191.57Z" style="fill:#0f3284"/><path d="M352.05,184c10.88,3.31,27.92-1.42,34.54-10.41,3.31,4.26,11.83,10.89,15.14,9.94,1.89-8.52-6.62-24.13-26-24.13C351.11,159.4,352.05,183.06,352.05,184Z" style="fill:#0f3284"/><path d="M426.81,244.56c-4.73-4.25-30.28-7.57-34.07-7.09-5.68,30.28-21.29,101.25-21.29,117.81s1.42,80,30.28,78.07,40.69-4.26,43.06-8.52c1.89-4.73-20.35-75.7-19.87-83.27S438.64,256.39,426.81,244.56Z" style="fill:#37629f"/><g style="clip-path:url(#clip-path-3)"><g style="opacity:0.200000002980232"><path d="M390.85,234.63l15.61,23.66-13.72,18,7.1,10.41L370,361C369.08,337.77,390.85,234.63,390.85,234.63Z" style="fill:#231815"/></g></g><path d="M325.56,244.56c4.73-4.25,29.8-7.57,34.06-7.09,5.21,30.28,21.29,101.25,21.29,117.81s-1.89,80-30.28,78.07-40.69-4.26-43.05-8.52,20.34-75.7,19.87-83.27S313.73,256.39,325.56,244.56Z" style="fill:#37629f"/><g style="clip-path:url(#clip-path-4)"><g style="opacity:0.200000002980232"><path d="M361.51,234.63,345.9,258.29l13.72,18-7.1,10.41L382.33,361C383.28,337.77,361.51,234.63,361.51,234.63Z" style="fill:#231815"/></g></g><path d="M285.81,346.29c-9.46-8.52,3.31-39.74,17.51-64.82s19.4-39.74,28.86-39.74c7.1,0,12.3,41.16,4.73,53S307.58,365.21,285.81,346.29Z" style="fill:#37629f"/><path d="M286.29,336.35c5.67-19.87,47.78-16.08,62.45-15.14a92.12,92.12,0,0,0,3.78,19.87C306.63,352.44,279.66,359.06,286.29,336.35Z" style="fill:#37629f"/><path d="M466.55,346.29c9.46-8.52-3.31-39.74-18-64.82s-19.4-39.74-28.86-39.74c-7.1,0-12.3,41.16-4.73,53S444.79,365.21,466.55,346.29Z" style="fill:#37629f"/><path d="M466.08,336.35c-5.68-19.87-47.79-16.08-62.46-15.14a92.12,92.12,0,0,1-3.78,19.87C445.73,352.44,472.7,359.06,466.08,336.35Z" style="fill:#37629f"/></g></g><path id="computer-2" data-name="computer" d="M436.89,360h-2.51L438,301.34v-.47c0-3.79-3.16-6.63-7.37-6.63H318.42a7.24,7.24,0,0,0-7.37,7.1L314.62,360h-2.51c-1.06,0-2.11.47-2.11,1.89v5.21a2.16,2.16,0,0,0,2.11,1.89H436.89a2.16,2.16,0,0,0,2.11-1.89V361.9A2.16,2.16,0,0,0,436.89,360Z" style="fill:#123955"/></g></svg>