<?xml version="1.0" encoding="utf-8"?>
<!-- Generator: Adobe Illustrator 25.0.1, SVG Export Plug-In . SVG Version: 6.00 Build 0)  -->
<svg version="1.1" id="圖層_1" xmlns:svg="http://www.w3.org/2000/svg"
	 xmlns="http://www.w3.org/2000/svg" xmlns:xlink="http://www.w3.org/1999/xlink" x="0px" y="0px" viewBox="0 0 123.1 278"
	 style="enable-background:new 0 0 123.1 278;" xml:space="preserve">
<style type="text/css">
	.st0{fill-opacity:0;}
	.st1{fill:#E9CF72;stroke:#444444;stroke-width:4;stroke-linejoin:round;}
	.st2{fill:#C8C8C8;stroke:#444444;stroke-width:4;}
	.st3{fill:#FFE6C4;stroke:#444444;stroke-width:4;stroke-linejoin:round;}
</style>
<rect x="-344.7" y="-122.9" class="st0" width="500" height="500"/>
<g transform="rotate(0,0,0)">
	<path class="st1" d="M105.3,12.2c-7.6-2.8-14.9-1.8-17.8,6.1L80,38.9l27.6,10l7.5-20.6C117.9,20.5,112.9,15,105.3,12.2L105.3,12.2z
		"/>
	<path class="st1" d="M75.9,50.2l27.6,10L42.2,228.5l-27.6-10L75.9,50.2z"/>
	<path class="st2" d="M80,38.9l27.6,10l-8.3,22.7l-27.6-10L80,38.9z"/>
	<path class="st3" d="M14.6,218.6c9-2.3,20.9,2.9,27.6,10l-31.6,43.9L14.6,218.6z"/>
</g>
</svg>
