<?xml version="1.0" encoding="utf-8"?>
<!-- Generator: Adobe Illustrator 25.0.1, SVG Export Plug-In . SVG Version: 6.00 Build 0)  -->
<svg version="1.1" id="圖層_1" xmlns:svg="http://www.w3.org/2000/svg"
	 xmlns="http://www.w3.org/2000/svg" xmlns:xlink="http://www.w3.org/1999/xlink" x="0px" y="0px" viewBox="0 0 386.1 395.4"
	 style="enable-background:new 0 0 386.1 395.4;" xml:space="preserve">
<style type="text/css">
	.st0{fill-opacity:0;}
	.st1{fill:#B3E0E1;stroke:#444444;stroke-width:4;}
	.st2{fill:#FFFFFF;stroke:#444444;stroke-width:4;}
	.st3{fill:#C8C8C8;stroke:#444444;stroke-width:4;}
	.st4{fill:#E9CF72;stroke:#444444;stroke-width:4;stroke-linejoin:round;}
	.st5{fill:#FFE6C4;stroke:#444444;stroke-width:4;stroke-linejoin:round;}
</style>
<rect x="-81.7" y="-54.9" class="st0" width="500" height="500"/>
<g transform="rotate(0,0,0)">
	<path class="st1" d="M32.3,21.7h206.8c11.6,0,21,9.7,21,21.7v318.1c0,12-9.4,21.7-21,21.7H32.3c-11.6,0-21-9.7-21-21.7V43.4
		C11.3,31.4,20.7,21.7,32.3,21.7z"/>
	<path class="st2" d="M36.6,50.3h198.2v304.3H36.6V50.3z"/>
	<path class="st3" d="M77.4,7.1c-5,0.1-8.9,4.3-8.9,9.4v40.2C68.5,73.4,81.8,87,97.9,87h75.7c16.1,0,29.4-13.6,29.4-30.3V16.6
		c0.1-5.1-3.9-9.4-8.9-9.4c-5-0.1-9.1,4-9.1,9.2c0,0.1,0,0.2,0,0.3v40.2c0,6.6-4.9,11.7-11.4,11.7H97.9c-6.5,0-11.4-5.1-11.4-11.7
		V16.6c0.1-5.1-3.9-9.4-8.9-9.4C77.6,7.1,77.5,7.1,77.4,7.1L77.4,7.1z"/>
	<path class="st4" d="M368.3,80.2c-7.6-2.8-14.9-1.8-17.8,6.1l-7.5,20.6l27.6,10l7.5-20.6C380.9,88.5,375.9,83,368.3,80.2
		L368.3,80.2z"/>
	<path class="st4" d="M338.9,118.2l27.6,10l-61.3,168.3l-27.6-10L338.9,118.2z"/>
	<path class="st3" d="M343,106.9l27.6,10l-8.3,22.7l-27.6-10L343,106.9z"/>
	<path class="st5" d="M277.6,286.6c9-2.3,20.9,2.9,27.6,10l-31.6,43.9L277.6,286.6z"/>
</g>
</svg>
