<svg xmlns="http://www.w3.org/2000/svg" viewBox="0 0 155.67 393.53"><g id="圖層_2" data-name="圖層 2"><g id="レイヤー_1" data-name="レイヤー 1"><path d="M114.15,76.75s2-3.78,2.55-4.46,2-2.49,3.72-2.81a56.43,56.43,0,0,1,6.75-.49c.91,0,5.11-.87,5.92-.87a15.4,15.4,0,0,1,3.33.9c.29.13-.26,1.39-.42,1.43s-.88.22-.88.22a46.28,46.28,0,0,0,4.79-.16A44.88,44.88,0,0,1,146,69.38c1.49,0,5.79-.42,6.85-.23s3.11.88,2.81,1.72-3.42,2.16-6.17,2.45a36.14,36.14,0,0,0-8.08,1.94,63.55,63.55,0,0,1-7,1.75c-1.68.42-5.43,1.42-7,2a10.24,10.24,0,0,0-3.23,1.55,25.66,25.66,0,0,0-1.94,2.36c-.1.19-2.33-1.78-4-2.36a27.11,27.11,0,0,0-4.1-1.39C113.08,79,114.15,76.75,114.15,76.75Z" style="fill:#fad3bc"/><path d="M23.79,350.65s8.27,12.66,9.43,13.83,13.32,6.2,15.65,6.46,1.81-6.33,1.81-6.33-8.8-19-8.92-21.59,7.62-16.94,7.88-17.71,11-24.05,12.93-30.12,7-28.18,7-28.83-19.91-3.1-19.91-3.1S39.43,276.44,38.91,288s-9,45.37-9.82,47.18-3.72,8.74-4.16,9.33S23.71,350,23.79,350.65Z" style="fill:#e3b59e"/><path d="M50.29,361.37s.19,3.95,3,6,6.4,4.65,6.66,6.46.71,4.27-1.42,5.3-3.24,1.87-6,1.36-7-3.3-10.47-6.14-8.27-6.73-8.92-7.89-1.81-2.84-1.81-2.84V366s-2.26,1-2.9.91-1.23-1.55-1.23-1.55l.9-3.95a10.1,10.1,0,0,1-4.27-2.45c-1.74-1.81-3-5.69-2.9-7.11s4.33-8.66,4.33-8.66-.26,6,.06,6.85,3.3,7.43,5.3,9.37,2.72,4.4,4.46,5.24,12,4.72,13.45,3.36S50.29,361.37,50.29,361.37Z" style="fill:#050a14"/><path d="M52.18,367.19s3.73,2.86,4.8,3.76a10.2,10.2,0,0,1,2.32,4.1V376s-1.3-.44-2.52-.88-6-1.89-6-1.89,1.55-2.52,1.41-3.87A7.91,7.91,0,0,1,52.18,367.19Z" style="fill:#656f7c"/><path d="M35.26,379.41a72.4,72.4,0,0,0,9.65,1A4.76,4.76,0,0,0,49,376.89c0-1,1.4-9.36,1.45-10.47S50,356.67,50,356a15.45,15.45,0,0,0-1-2.66,39.35,39.35,0,0,1-2.37-11.59c-.25-6.3-.74-21.26-.74-24.69S44,289.73,44.18,284.88a50.73,50.73,0,0,1,1.26-10.38c.39-1,1.22-12.31,1.22-12.31l-23.91-.68s.2,8.44,0,10.18-1.92,25.11-1.88,26.57,5.76,29.37,7.21,32.19,6.6,18.22,6.89,20.45.49,8.46.68,9.7a23,23,0,0,1-.26,6.3c-.42,2.2-2.33,7.76-2.46,8.79A3.33,3.33,0,0,0,35.26,379.41Z" style="fill:#f8c9ae"/><path d="M39.09,393.52a21.64,21.64,0,0,0,5.72-.49,7.43,7.43,0,0,0,3.93-4.27c0-.72.77-6.35.87-7.8s1.21-9.45,1.16-10,.89-5.09.49-6a29.77,29.77,0,0,1-1-3.54s.15,3.5.15,4.27-1,11-1.32,11.82a2.43,2.43,0,0,1-2,1.66,56.94,56.94,0,0,1-7.52.19c-2.47-.19-5,.08-5.7-.73a7.21,7.21,0,0,1-1.23-2.23c0-.24,3-10.22,3-10.22l0-1.46s-5,14.64-5.95,16.19a14.21,14.21,0,0,0-1.21,5.34c0,.63.58,3.44,1.55,4.07S36.22,393.54,39.09,393.52Z" style="fill:#1d252d"/><path d="M17.58,171.21s-9.31,46.54-9.82,57.66S3.36,256,3.36,256s11,.35,12.51,1.81,1.71,7.66,1.71,7.66,14.29,1.06,18.75,1.74,22.68.68,29.28.68h8.72s11.31-.39,13.51-.71a8.77,8.77,0,0,0,3.62-1.36l12.93-8s-5.24-31.42-6.27-37.49S92,175.61,91.4,172.89a76.58,76.58,0,0,0-2.85-8s-23.27-13.06-26.76-12.67-12.41,3.1-16.42,4.27S17.58,171.21,17.58,171.21Z" style="fill:#1c2024"/><path d="M88.14,171.66s-11.7.13-14.16-.52-8.4-6.07-9.3-7.43S61.83,159,61.83,159l1.63-4.06a35.87,35.87,0,0,0,3.87,6.77c2.19,2.85,6.46,5.76,10.66,5.82s8.53-1.1,9.7-.52a40.38,40.38,0,0,0,3.88,1.49l-1.18,2.87Z" style="fill:#111219"/><path d="M25.85,38.18a11.31,11.31,0,0,0,0,8.48C27.75,51,27.26,52,32.5,53.3s9.77-11.16,8.74-13.43-5.67-14.64-8-14.46S29.8,23,28.05,26.82,25.85,38.18,25.85,38.18Z" style="fill:#1e191b"/><path d="M26.82,67.41s8.77-10.83,9-14c.46-5.06-1.94-9.23-2-10.88a12.6,12.6,0,0,0-.9-3.51s-1.35,1.52-2.23,1.36-2.23-2.14-2.68-3.2-1.16-7-.19-7.34,2.74-.87,3.42,0-.94-5.75,2.26-9.34,7.86-7.37,11.25-8.43S55.07,9.62,57.14,10.3s6.82,3.1,7.3,4.07S67,25.52,67,25.52l-.68,6.82s-.74,4.53-1,5.53S62.6,47.34,61.44,48.5s-3.3,2.28-3.88,3.73a16.63,16.63,0,0,0-.73,5.43c0,1.7,4.14,6.52,4.67,7.19a32.77,32.77,0,0,1,2.81,6c1.3,3.24,1,14.29.07,16s.71,5.49-9.24,4.78-14.74-.13-18.3-4.13-6.65-10.86-7.3-12.22S26.82,67.41,26.82,67.41Z" style="fill:#f8c9ae"/><path d="M32.06,78.17s9.7,7.47,15.32,8.24S59.69,86,62.21,84.08s8.63-8.33,8.63-8.33a151.15,151.15,0,0,0-3.29,22.1c-.78,11.54-9.22,23.27-9.89,23.85s-16-16.77-20-25.5A85.59,85.59,0,0,1,32.06,78.17Z" style="fill:#f2f8fd"/><path d="M64.35,65.08s6.69,2.4,7.36,2.59,13,3.13,13,3.13.38,24.84,0,27.93-2.49,19-2.1,24.91,3.36,17.2,3.74,19.13,7.89,26.76,7.89,26.76-5.56-.13-9.57,0-9.69.65-12.79-1.16S63.1,160.5,62,157.9s-4.85-36.18-4.85-36.18S65.8,105,67.35,91.58,64.35,65.08,64.35,65.08Z" style="fill:#171a1e"/><path d="M57.46,60.9s5.43,5.83,5.33,9.32.49,18.23,0,22.2-5.45,24-5.45,24l2.82,5.84s8.64-13.06,10.67-16.65,4.56-11,5.53-15.81S78.7,72.64,78.7,72.64s-7.52-3.49-8.49-3.78,3.24-.08,3.24-.08,1.32-1.08-.14-1.52a44.88,44.88,0,0,1-7.51-2.81C63.62,63.24,58.38,60.84,57.46,60.9Z" style="fill:#282d31"/><path d="M81.77,119.13s3.74,8.2,6.78,10.33,4.46,4.07,7.11,4.2,4.85-.39,5.17-1.42,1.17-.91,2-2a13.94,13.94,0,0,0,1.55-3.1,34.44,34.44,0,0,0,3.75-4.46c1.29-2,3.88-6.07,4-8.4s4.85-9.18,6.34-11.51,7.43-7.36,9.37-8.4a37.65,37.65,0,0,0,4.91-3.55l-1.87-1.49.65-2.33s-8-5.43-10.09-6.54c-1.73-1-6.38-2.81-7.73-3.35l-.36-.14L102.26,96.4s-3,1.89-3,2.81,0,4.41,0,4.41-.39,1-1.12.49S95,94.22,94.64,92.42s-3-12.07-3.92-14S88,74.82,87.71,74a6,6,0,0,0-1.36-2.37,23.44,23.44,0,0,0-2-1.26l-4.19-.49s3.51,2.09,3.9,3.83,0,20.17,0,21.72.29,7.71-.68,10.57S81.77,119.13,81.77,119.13Z" style="fill:#1e2229"/><path d="M48.45,0A21.48,21.48,0,0,0,34,5.16c-7,5.82-10.69,20-10.69,20L19.75,35.22a61.51,61.51,0,0,0-1,7.17,16.32,16.32,0,0,0,.77,4.27s1.85-7.66,3-9.55,5.66-4.76,7.4-5.62,1.91-3.7,3.14-4.93,5.72-9.31,5.72-9.31,0,6.08-3.27,8.66c-2.06,1.65-5.47,5-5.47,5s2.73-1,4.79-1.95,6.32-3.86,7.62-4.64,6.18-4.28,9.16-6.16,5.85-4.07,7.27-6.33-1.29-7.92-2-8.52a9.74,9.74,0,0,0-2.91-1.77A28.67,28.67,0,0,0,48.45,0Z" style="fill:#1e1a17"/><path d="M19.53,36.39s-1.19,7.94-.8,9.74a41,41,0,0,0,5.38,12c1.81,2.41,6.29,3.13,7.4,3.09S34,59.75,35,58.1s1.79-5.87,1.79-5.87l-2.23.27c-1.21.15-4.65-1.09-5.72-2.64s-1.66-12.11-1.41-13,.83-5.33.83-5.33S20.48,32.46,19.53,36.39Z" style="fill:#1e1a17"/><path d="M59.23,4.13a48.79,48.79,0,0,1,5.47,6.59,38,38,0,0,1,3.94,9.83c.6,3.28,1.62,9.63,1.36,11.63S68.32,47,68.32,48.92a23.72,23.72,0,0,1-2.13,8.28,17.42,17.42,0,0,1-2,2.84A5.52,5.52,0,0,1,61,62.13c-1.6.24-3,1-3.65-.6S55.85,57,56,55.9l.44-4a9.39,9.39,0,0,0,6.08-6.17c1.55-5,2.78-8.47,2.91-9s.78-11.19.52-13.06S62,15.7,61.66,14.86s-2.41-3.14-2.43-3.71S57.36,3.85,56.1,3A19.35,19.35,0,0,0,53,1.43,57.31,57.31,0,0,1,59.23,4.13Z" style="fill:#1e191b"/><path d="M34.58,44.27A6.59,6.59,0,0,0,35.49,46,14.31,14.31,0,0,0,40,51.15,33.21,33.21,0,0,0,45.18,54,9.83,9.83,0,0,0,49,55.13a9.11,9.11,0,0,0,3.62-.86c.61-.24,1.21-.49,1.83-.7.29-.1,1.35-.23,1.48-.55-.75,1.83-1.84,4-3.74,4.9a7.08,7.08,0,0,1-3.77.27,14,14,0,0,1-4.48-1.4C39,54.66,35.79,50,34.58,44.27Z" style="fill:#cc9378"/><path d="M63,125.19l0,.1c.22.81,1.66,6.37,1.66,9.66,0,3.56,0,15.77-.33,16.74s-1.35,10.73-2,11.83-3,5.88-5.56,7-9.44,3.75-12.54,4.14-17.39,1.42-19.71,1.29-5.69-.61-5.69-.61S54,171,56.3,166s6.59-30.12,6.72-34-2.56-9.08-2.56-9.08l.49-.76Z" style="fill:#111219"/><path d="M23.14,66.34s-7.17,4.46-9.5,5-9.21,2.9-9.21,2.9S18.1,122.38,19.16,124a10,10,0,0,0,3.4,2.81s.1,12,.58,13.38a9.47,9.47,0,0,1,0,5.43c-.58,1.26-3.68,17.36-4,18s-2.28,11.1-2.28,11.1.93.54,3.93.54,15.42-.58,21-1S55,170.28,56.2,168.63s6.21-10,7.08-14.74-.24-21.43-.34-24a23.21,23.21,0,0,0-1.45-6c-.05-.19-29.75-53.61-30.59-55.88S29,63,29,63Z" style="fill:#1d2125"/><path d="M12.6,89.84s4.85,9.11,5.69,12.54a80.2,80.2,0,0,1,1.49,13.83c-.13,1.87-.26,7.56-.26,7.56l-.71.71s-.07-10.34-.32-13.18-.51-7.24-1.61-9.83S12.6,89.84,12.6,89.84Z" style="fill:#24242d"/><path d="M17.33,75s-1.8,2.26-1.13,3.43S22.36,90,24.56,92.1s6.27,7.24,7.5,8.27,9.57,8.6,9.57,8.6-16.87-21.2-18-24.24S17.33,75,17.33,75Z" style="fill:#111219"/><path d="M28,61.72l-10.8,6.72s-.71.76,0,1.32,5.63.69,5.63.69a2.21,2.21,0,0,1-1.17,2c-1.22.58-4.7,2.13-4.77,3.3s5.55,10.6,9.62,15.51,16.22,20.55,17.91,21.85,8.14,7,9.69,7.88,4.53,3,5.62,3.69,2.14,1.87,2.2,1.61-3.84-8.55-4.57-9.87S47,94.85,44,90.68,33.32,72.45,32.06,69.54s-2.26-4.3-1.58-5.17a11.57,11.57,0,0,1,1.9-1.78l.82-2.19A6.56,6.56,0,0,0,28,61.72Z" style="fill:#282d31"/><path d="M5.25,73.91a4.27,4.27,0,0,0-3,3.29C1.86,79.77.26,102.31.26,105.32s-.58,13.47,0,16.09,1.45,16.39,1.36,17.16-.26,12.93-.46,14.87S0,166.37,0,167.27,2.07,203.4,2.07,203.4s-.84,2-.58,2.78a5.44,5.44,0,0,0,.87,1.52,3,3,0,0,1,2.1-1.52c1.58-.16,4.89-.35,6.47.5s3.16,1.83,3.16,1.83,3.74-33.52,4.35-35.59a20.17,20.17,0,0,0,.74-3.61s1.15-19.93,1.34-20.85.15-3.68.63-5S20.52,131.2,20,128.25a35.64,35.64,0,0,1-.49-5.24s-2.2-21.18-2.67-23.12S7.46,74,5.25,73.91Z" style="fill:#24272e"/><path d="M75.69,173.48s5,41.69,5,51.58,1,39,1,39l-2.46,3.17s-3.65-55.33-3.55-57.9S75.69,173.48,75.69,173.48Z" style="fill:#121317"/><path d="M86.23,175.32s3.36,33.77,3.36,37.65,1.89,42.14,2,43,0,8.27,0,8.27-.82-35.55-.69-44-2.2-38.33-2.65-40S86.23,175.32,86.23,175.32Z" style="fill:#131519"/><path d="M13,199.65s3.1,26,2.81,30.74.63,24.24.63,24.24v4l-9.26-4.08S7.91,242.46,9.28,233,13,199.65,13,199.65Z" style="fill:#282d31"/><path d="M42.34,174.94s.51,23.86.58,25.34-.58,14.61-.58,14.61-2.2-20.49-2.14-23.2-.32-16.29-.32-16.58S41.82,173.44,42.34,174.94Z" style="fill:#121317"/><path d="M2.73,206.2s.15,5.48-.39,7A32.82,32.82,0,0,0,1,217.93c0,.49,1.56,3.39,2.33,5.24s2,5.67,2.91,6.3,4.36,2.91,5.33,3.44a27.83,27.83,0,0,0,4.12,1.55c.49.1.88-1,.58-1.89s-2.23-2.81-3.24-3.68a28.48,28.48,0,0,1-4-5.19c-.14-.58-.87-2.23-.92-2.72a23.53,23.53,0,0,1,1-3.29c0-.16,1.08-.2,1.08.82a43.13,43.13,0,0,0,.44,5,8.43,8.43,0,0,0,1,3.2c.63.83,1.41,2.43,2.09,2s1.5-2.76,1.21-4.46-.68-5.87-.68-6.74.08-7.84-.18-9.08-1-3-2.15-3.38a19,19,0,0,0-3.68-1.06c-.68,0-3.25-.44-3.93,0A8,8,0,0,0,2.73,206.2Z" style="fill:#fad3bc"/><path d="M95.76,107.26s-3.59,3.87-3.88,4.7-1.55,1.45-2.37,2.62-3.3,3.87-3.45,4.55a22.73,22.73,0,0,0,0,3.13s4.85-5.5,5.09-5.74-.58,2.18.29,3.53,1.41,2.44,1.46,2.21-.73-4.77-.53-6.28.63-2.57,1.06-2.32a5,5,0,0,1,1.21,2,29,29,0,0,0,.34-4.26,3.78,3.78,0,0,1,.78-2.33C96.2,108.61,95.76,107.26,95.76,107.26Z" style="fill:#0f1117"/><path d="M100,107.26a52.47,52.47,0,0,0,.87,5.47,20.32,20.32,0,0,1,0,7.28,7.93,7.93,0,0,1-.58,1.71s0-6.61-.29-8.21a39.1,39.1,0,0,1-.59-4.12A14.71,14.71,0,0,1,100,107.26Z" style="fill:#282d31"/><path d="M102.11,98.73s2.13,1.69,2.13,2.61v7.13c0,.24-1.16-6.5-1.84-7.47a11.58,11.58,0,0,0-1.7-1.84Z" style="fill:#282d31"/><path d="M91.2,96.11s3.64,4.31,4.17,5.18a17.36,17.36,0,0,1,1.12,2.52c0,.15.24,1.26,0,1.56s-2.09.38-4.75,0-5-.68-5.14-1.41-1.36-.43.38-2.2a22,22,0,0,0,2.77-3.38C90.33,97.61,91.2,96.11,91.2,96.11Z" style="fill:#0f1117"/><path d="M111.47,113.24A12.06,12.06,0,0,1,110.4,118a43.55,43.55,0,0,1-3.17,4.65c-.09.13-1-1,.65-3.91A50.16,50.16,0,0,1,111.47,113.24Z" style="fill:#0f1117"/><path d="M79.31,77s-.74,7.38-.61,9.23.52,2.24.52,4.31a8,8,0,0,0,1.61,4.14s-3.78-6.31-3.43-7.86S79.31,77,79.31,77Z" style="fill:#0f1117"/><path d="M90.2,82.57a11.92,11.92,0,0,1-2.91,2.23,8.19,8.19,0,0,0-2.1,1.08,4.67,4.67,0,0,1,.49-2.35,12.85,12.85,0,0,1,3.23-2.06c.64-.33,2.2-.17,2.07,0S90.2,82.57,90.2,82.57Z" style="fill:#0f1117"/><path d="M85.19,72.45s.29,8,.29,8.29-.73,20.12-.73,20.12-2,9.73-1.82,11.86a52.46,52.46,0,0,1-.52,6.91l-.6-1.21s.92-11.13,1.25-12.29a45.08,45.08,0,0,0,.59-5L85,80.55l-.18-9.49Z" style="fill:#282d31"/><path d="M76.5,135.89s.64,4.78,2.26,6.46a33.41,33.41,0,0,0,5.33,4.24,19.61,19.61,0,0,1,3.59,2.94c.16.35.48-.65-.23-1.23s-2.45-2.91-4.68-4.2a10.29,10.29,0,0,1-3.85-3.3C78.4,139.93,76.5,135.89,76.5,135.89Z"/><path d="M42,136.63s.84,7.18.33,8.28S31.67,150.3,31,150.43s-7.76,2.94-8.53,3.14a2.65,2.65,0,0,1-1.35,0s6.42-2.32,8.85-3.14A108.61,108.61,0,0,0,41.3,145.1c.26-.32.42-6.25.62-6.92A4.79,4.79,0,0,0,42,136.63Z"/><path d="M.85,117.29s2.92-11,3.26-12.83,1.17-8.82,1.17-8.82-3.82,5.93-4.16,8.53S.85,117.29.85,117.29Z" style="fill:#13141a"/><path d="M60.52,127a2.4,2.4,0,1,1-2.4-2.4A2.4,2.4,0,0,1,60.52,127Z" style="fill:#131519"/><polygon points="24.01 144.25 41.42 136.25 41.42 136.63 24.5 144.49 24.01 144.25" style="fill:#131519"/></g></g></svg>