<svg id="everlandLOGO" data-name="圖層 1" xmlns="http://www.w3.org/2000/svg" viewBox="0 0 269.04 229.19"><defs><style>.cls-1{fill:#f9f7f6;}.cls-2,.cls-4{fill:#386b57;}.cls-2,.cls-3{stroke:#000;stroke-width:4px;}.cls-2,.cls-3,.cls-5{stroke-miterlimit:10;}.cls-3,.cls-6{fill:#c7b299;}.cls-5,.cls-7{fill:none;stroke-linecap:round;stroke-width:8px;}.cls-5{stroke:#a3baa3;}.cls-7{stroke:#fff;stroke-linejoin:round;stroke-dasharray:8 20;}.cls-8{fill:#b3b3b3;}.cls-9{fill:#333;}</style></defs><path class="cls-1" d="M622.4,345.94" transform="translate(-225.78 -262.85)"/><path class="cls-2" d="M228.89,488.23a5.39,5.39,0,0,1-.91-2.85q-.19-2-.2-12t.25-13c.2-2.62,1.06-4,2.59-4q2.63-.09,21.73-.1c1.44,0,2.15,1.18,2.15,3.52q0,2.76-1.89,2.76h-8a1.41,1.41,0,0,0-1.22.66,2.93,2.93,0,0,0-.45,1.69v3.37c0,.94.32,1.41,1,1.41h6.62a2.35,2.35,0,0,1,.9.14,1.42,1.42,0,0,1,.56.82,6.92,6.92,0,0,1,.26,2.23,3.51,3.51,0,0,1-.42,2.06,1.68,1.68,0,0,1-1.37.51h-5.93a1.34,1.34,0,0,0-1.26.59,3.66,3.66,0,0,0-.34,1.8v2.3c0,1.34.49,2,1.49,2h9.06a1.64,1.64,0,0,1,1.17.5,3.12,3.12,0,0,1,.51,2.15,6.93,6.93,0,0,1-.62,3c-.41.87-.9,1.31-1.46,1.31H230.62A2.15,2.15,0,0,1,228.89,488.23Z" transform="translate(-225.78 -262.85)"/><path class="cls-2" d="M279.77,486.66a5,5,0,0,1-2.28,2.49A7.21,7.21,0,0,1,274,490a7.09,7.09,0,0,1-3.46-.85,5,5,0,0,1-2.26-2.43q-5.46-13-10.15-25.5a7.22,7.22,0,0,1-.55-2.29c0-1.69.59-2.53,1.78-2.53l10.53-.1a3.1,3.1,0,0,1,2.05.61,5.18,5.18,0,0,1,1.26,2.44L276.71,471c.15.5.41.75.8.75s.68-.25.88-.75l4.76-13.31q.48-1.26,1-1.41a4.58,4.58,0,0,1,.77,0l4.19.09c.46,0,.78.28,1,.85a2.55,2.55,0,0,1,.11.79,11.82,11.82,0,0,1-.82,2.58q-.82,2.12-4.26,11.72T279.77,486.66Z" transform="translate(-225.78 -262.85)"/><path class="cls-2" d="M294.68,488.23a5.3,5.3,0,0,1-.91-2.85q-.21-2-.2-12t.25-13c.2-2.62,1.06-4,2.59-4q2.61-.09,21.73-.1c1.43,0,2.15,1.18,2.15,3.52q0,2.76-1.89,2.76h-8a1.41,1.41,0,0,0-1.22.66,2.86,2.86,0,0,0-.46,1.69v3.37q0,1.41,1,1.41h6.62a2.26,2.26,0,0,1,.89.14,1.38,1.38,0,0,1,.57.82,7,7,0,0,1,.25,2.23,3.51,3.51,0,0,1-.42,2.06,1.66,1.66,0,0,1-1.36.51h-5.94a1.33,1.33,0,0,0-1.25.59,3.64,3.64,0,0,0-.35,1.8v2.3q0,2,1.5,2h9.06a1.64,1.64,0,0,1,1.17.5,3.18,3.18,0,0,1,.51,2.15,6.93,6.93,0,0,1-.62,3c-.42.87-.9,1.31-1.46,1.31H296.41A2.15,2.15,0,0,1,294.68,488.23Z" transform="translate(-225.78 -262.85)"/><path class="cls-2" d="M349,480.1q.69.94,4.91,7.08a1.5,1.5,0,0,1,.26.75c0,.81-.28,1.22-.84,1.22-1.29,0-2.58,0-3.88,0s-2.59,0-3.87,0a2.47,2.47,0,0,1-1.93-1.08L340.5,482a1,1,0,0,0-.44-.38c-.39-.19-.58,0-.58.61V487a2,2,0,0,1-2.06,2.16c-1.37.09-2.87.14-4.5.14s-3.59-.08-5.9-.24a2.29,2.29,0,0,1-1.69-.93,3.78,3.78,0,0,1-.74-1.92q-.3-4.12-.3-13t.22-12.87c.15-2.68,1.2-4,3.17-4.08s4.36,0,7.54,0,5.81,0,7.9.09a8.9,8.9,0,0,1,7.39,4.31,16.59,16.59,0,0,1,2.87,9.52,14.46,14.46,0,0,1-1.11,5.71A9.88,9.88,0,0,1,349,480.1Zm-9.54-14,.07,8.67c0,.59.26.89.77.89a4.3,4.3,0,0,0,3.55-1.62,5.92,5.92,0,0,0,1.29-3.82,6.08,6.08,0,0,0-1.22-3.79,4.25,4.25,0,0,0-3.59-1.6C339.73,464.82,339.44,465.25,339.44,466.09Z" transform="translate(-225.78 -262.85)"/><path class="cls-3" d="M372.93,467.59l0,9.37a7.26,7.26,0,0,0,.49,3.07,2.06,2.06,0,0,0,2.06,1h9.21c1.11,0,1.67,1.12,1.67,3.28a10.15,10.15,0,0,1-.47,3.61,2,2,0,0,1-1.93,1.17q-5.13.19-10.16.19t-12.81-.1a2.85,2.85,0,0,1-2.13-.82,3.4,3.4,0,0,1-.93-2.27q-.3-4.08-.29-12.86t.16-11.86a12,12,0,0,1,.67-4.08,2,2,0,0,1,2-1h9.75a2,2,0,0,1,2,1,9.12,9.12,0,0,1,.6,3.32C372.9,462.18,372.93,464.5,372.93,467.59Z" transform="translate(-225.78 -262.85)"/><path class="cls-3" d="M412.36,458.5l11.91,25.91A6.53,6.53,0,0,1,425,487a1.88,1.88,0,0,1-.66,1.57,2.43,2.43,0,0,1-1.53.51H411.09c-1.19,0-2-.28-2.3-.84-.09-.19-.23-.52-.4-1l-1.05-2.9a2.38,2.38,0,0,0-2.22-1.55h-6.88a2.79,2.79,0,0,0-1.17.19,1.43,1.43,0,0,0-.65.84l-1.42,3.8a2.8,2.8,0,0,1-.8,1.15,2.28,2.28,0,0,1-1.28.3h-3.28a1.32,1.32,0,0,1-1.52-1.31,1.64,1.64,0,0,1,0-.38,4.26,4.26,0,0,1,.54-2.06L400,459.48a5.5,5.5,0,0,1,5.32-3.65h2.91A4.18,4.18,0,0,1,412.36,458.5Zm-11.79,12-1.68,4.26a2.23,2.23,0,0,0-.14.75c0,.81.3,1.22.91,1.22H403a1.15,1.15,0,0,0,1.06-.49,1.82,1.82,0,0,0,.29-.87,2.78,2.78,0,0,0-.11-.75l-1.39-4c-.29-.81-.66-1.22-1.13-1.22S400.86,469.75,400.57,470.5Z" transform="translate(-225.78 -262.85)"/><path class="cls-3" d="M453.14,456.29H457a2.34,2.34,0,0,1,1.73.52,3.26,3.26,0,0,1,.53,2.11q.22,7.13.22,15.32t-.26,12a4.1,4.1,0,0,1-.63,2,1.71,1.71,0,0,1-1.48.89h-6.08a4.76,4.76,0,0,1-2.8-1.17q-8.44-6.42-10.63-7.83a.49.49,0,0,0-.71.17,2.81,2.81,0,0,0-.27,1.47V487a1.9,1.9,0,0,1-.51,1.4c-.51.53-1.82.8-3.94.8-.58,0-1.15,0-1.71-.07a1.74,1.74,0,0,1-1.36-1,4.12,4.12,0,0,1-.57-1.92q-.1-5.62-.11-14.13c0-5.67,0-9.37,0-11.09a10.83,10.83,0,0,1,.47-3.63,1.67,1.67,0,0,1,1.68-1.06h4a4.5,4.5,0,0,1,2.55.9q11.3,7.55,13.18,8.76c.41.25.74.28,1,.09a1.2,1.2,0,0,0,.37-1v-6.56a2.94,2.94,0,0,1,.38-1.55A1.19,1.19,0,0,1,453.14,456.29Z" transform="translate(-225.78 -262.85)"/><path class="cls-3" d="M480.34,489a67.74,67.74,0,0,1-7,.28q-4.54,0-6.2-.17a5,5,0,0,1-2.5-.77,2.39,2.39,0,0,1-.91-1.92c-.14-3.37-.22-7.22-.22-11.55s.05-8.91.15-13.76q.07-4.5,3.24-4.78c1.48-.12,3.75-.19,6.81-.19s5.45.06,7.19.17a11.39,11.39,0,0,1,5,1.55,11.15,11.15,0,0,1,3.88,3.58,18.57,18.57,0,0,1,3,10.55,20.56,20.56,0,0,1-3.16,11.29,12.91,12.91,0,0,1-4,3.94A11.61,11.61,0,0,1,480.34,489Zm-1.64-22.59v11.34a1.21,1.21,0,0,0,.22.7.65.65,0,0,0,.58.33,4,4,0,0,0,3.58-2.06,9.17,9.17,0,0,0,1.26-4.87,9.94,9.94,0,0,0-1.15-4.9,3.45,3.45,0,0,0-3.07-2.09,4.35,4.35,0,0,0-.73.05C478.93,465.08,478.7,465.57,478.7,466.42Z" transform="translate(-225.78 -262.85)"/><circle class="cls-4" cx="127.01" cy="86.33" r="86.33"/><line class="cls-5" x1="112.16" y1="49.14" x2="174.55" y2="49.14"/><line class="cls-5" x1="159.66" y1="67.88" x2="206.14" y2="67.88"/><line class="cls-5" x1="45.42" y1="67.88" x2="127.01" y2="67.88"/><line class="cls-5" x1="98.91" y1="89.27" x2="180.51" y2="89.27"/><line class="cls-5" x1="48.01" y1="110.66" x2="129.6" y2="110.66"/><line class="cls-5" x1="114.37" y1="132.05" x2="195.97" y2="132.05"/><line class="cls-5" x1="78.46" y1="151.76" x2="124.93" y2="151.76"/><line class="cls-5" x1="147.67" y1="151.76" x2="176.92" y2="151.76"/><line class="cls-5" x1="171.9" y1="109.82" x2="202.91" y2="109.82"/><path d="M352.79,267.85a81.33,81.33,0,1,1-81.32,81.32,81.41,81.41,0,0,1,81.32-81.32m0-5a86.33,86.33,0,1,0,86.33,86.32,86.32,86.32,0,0,0-86.33-86.32Z" transform="translate(-225.78 -262.85)"/><circle class="cls-6" cx="70.49" cy="151.76" r="10.67"/><path d="M296.27,405.93a8.68,8.68,0,1,1-8.68,8.67,8.68,8.68,0,0,1,8.68-8.67m0-4a12.68,12.68,0,1,0,12.67,12.67,12.68,12.68,0,0,0-12.67-12.67Z" transform="translate(-225.78 -262.85)"/><path class="cls-7" d="M316.4,317.07c3.63,9.21,9.86,17.22,17.06,24,23,21.67,58,32.66,70.74,63.83" transform="translate(-225.78 -262.85)"/><line class="cls-5" x1="72.68" y1="28.44" x2="121.83" y2="28.44"/><polygon class="cls-8" points="45.98 9.34 75.84 55.19 91.83 39.2 45.98 9.34"/><polygon class="cls-1" points="45.98 9.34 92.18 42.61 104.52 23.61 45.98 9.34"/><polygon class="cls-1" points="45.98 9.34 79.25 55.54 60.25 67.88 45.98 9.34"/><path class="cls-9" d="M318.69,309.37l16-24.65-62.29-15.19L268,268.46l2.06,8.43,14.19,58.24,24.65-16L307,316.49l9-9Zm7.2-21.16-7.38,11.38-28.76-16.86-11.49-7.87Zm-51.46-9.52,7.87,11.49,16.86,28.76-11.38,7.39ZM303.8,312l-20-27.73,27.73,20Z" transform="translate(-225.78 -262.85)"/><line class="cls-5" x1="141.06" y1="28.44" x2="186.28" y2="28.44"/><path class="cls-6" d="M412.06,308.12a17.53,17.53,0,1,1,17.52-17.52A17.54,17.54,0,0,1,412.06,308.12Z" transform="translate(-225.78 -262.85)"/><path d="M412.06,275.07a15.53,15.53,0,1,1-15.53,15.53,15.54,15.54,0,0,1,15.53-15.53m0-4a19.53,19.53,0,1,0,19.52,19.53,19.53,19.53,0,0,0-19.52-19.53Z" transform="translate(-225.78 -262.85)"/></svg>